PathFileType	4	(X/Y/Z)	C:\Users\Basilio\Documents\Thesis Gigler\squatting_fais\c3dfiles\019\SLS_back_pre5\markers_experimental.trc
DataRate	CameraRate	NumFrames	NumMarkers	Units	OrigDataRate	OrigDataStartFrame	OrigNumFrames
200.000000	200.000000	4	59	mm	200.000000	1036	2073
Frame#	Time	FHD			LBHD			RBHD			C7			T10			CLAV			LSHO			LUUPA			LMUPA			LDUPA			LLEP			LMEP			LRAD			LUL			LRFIN			RSHO			RUPA1			RMUPA			RDUPA			RLEP			RMEP			RRAD			RUL			RUFIN			LASI			RASI			USACR			LSACR			RSACR			LTHI1			LTHI2			LTHI3			LTHI4			LLFC			LTIB1			LTIB2			LTIB3			LTIB4			LLMAL			LMMAL			LHEE			LMT1			LMT2			LMT5			RTHI			RTHI2			RTHI3			RTHI4			RLFC			RTIB1			RTIB2			RTIB3			RTIB4			RLMAL			RMMAL			RHEE			RMT1			RMT2			RMT5			
		X1	Y1	Z1	X2	Y2	Z2	X3	Y3	Z3	X4	Y4	Z4	X5	Y5	Z5	X6	Y6	Z6	X7	Y7	Z7	X8	Y8	Z8	X9	Y9	Z9	X10	Y10	Z10	X11	Y11	Z11	X12	Y12	Z12	X13	Y13	Z13	X14	Y14	Z14	X15	Y15	Z15	X16	Y16	Z16	X17	Y17	Z17	X18	Y18	Z18	X19	Y19	Z19	X20	Y20	Z20	X21	Y21	Z21	X22	Y22	Z22	X23	Y23	Z23	X24	Y24	Z24	X25	Y25	Z25	X26	Y26	Z26	X27	Y27	Z27	X28	Y28	Z28	X29	Y29	Z29	X30	Y30	Z30	X31	Y31	Z31	X32	Y32	Z32	X33	Y33	Z33	X34	Y34	Z34	X35	Y35	Z35	X36	Y36	Z36	X37	Y37	Z37	X38	Y38	Z38	X39	Y39	Z39	X40	Y40	Z40	X41	Y41	Z41	X42	Y42	Z42	X43	Y43	Z43	X44	Y44	Z44	X45	Y45	Z45	X46	Y46	Z46	X47	Y47	Z47	X48	Y48	Z48	X49	Y49	Z49	X50	Y50	Z50	X51	Y51	Z51	X52	Y52	Z52	X53	Y53	Z53	X54	Y54	Z54	X55	Y55	Z55	X56	Y56	Z56	X57	Y57	Z57	X58	Y58	Z58	X59	Y59	Z59	

1037	5.18	-284.1810607910157	1722.834228515625	-673.0180664062501	-412.1230468750001	1688.283569335938	-816.0752563476565	-414.219940185547	1678.9365234375	-676.3538818359376	-432.4945373535157	1502.090454101563	-740.5352783203126	-448.173065185547	1212.143676757813	-736.5426025390626	-295.7438659667969	1465.154174804688	-747.6388549804689	-356.7275085449219	1504.09130859375	-887.289245605469	-229.8948364257813	1468.781005859375	-949.5915527343752	-202.0924682617188	1470.2314453125	-909.7769165039065	-164.2715759277344	1465.171752929688	-956.7368164062502	-94.65354919433595	1427.623291015625	-987.7374267578127	-94.06768798828126	1372.914672851563	-963.6712036132815	146.6320343017578	1477.184814453125	-912.177673339844	154.2495727539063	1430.264038085938	-958.0454101562502	219.5829620361329	1498.296508789063	-916.7722167968752	-344.7895507812501	1498.888061523438	-615.1253662109376	-228.4576873779297	1410.586181640625	-514.9409179687501	-195.9231719970704	1442.553833007813	-537.0997314453126	-159.9033508300782	1404.66650390625	-512.4774780273439	-83.57666778564455	1394.855590820313	-519.0940551757814	-93.21721649169923	1345.0361328125	-547.0670166015626	156.1448211669922	1456.233642578125	-572.8036499023439	170.8521575927735	1403.717163085938	-540.5497436523439	239.2829589843751	1470.619018554688	-560.6806640625001	-296.0749206542969	1015.591369628906	-868.3132324218752	-275.0500793457032	1004.040466308594	-661.7179565429689	-445.947479248047	1082.571166992188	-743.0766601562501	-453.767791748047	1051.5703125	-772.272155761719	-445.9340820312501	1050.181396484375	-715.0661010742189	-308.5458984375001	764.0164794921876	-953.5361938476565	-254.5097351074219	698.8745727539064	-961.8782958984377	-209.5027313232422	712.5237426757814	-948.4094848632815	-265.3320617675782	639.2362670898439	-953.3967285156252	-259.7446899414063	552.6010742187501	-939.0805664062502	-314.5161437988282	424.2985839843751	-905.8557128906252	-389.3774719238282	443.8112182617189	-947.374206542969	-366.9409790039063	412.4960021972657	-928.2437133789065	-427.7031860351564	366.7661743164063	-886.0233154296877	-576.3013916015626	345.1789855957032	-892.1032714843752	-542.9011230468751	332.9758911132813	-811.5871582031252	-637.4006347656251	367.9088745117188	-830.482849121094	-523.8768920898439	187.1883850097657	-831.281188964844	-529.8422241210939	183.5933837890625	-870.4422607421877	-583.0681762695314	202.4816284179688	-912.0646972656252	-307.9895935058594	795.4776000976565	-599.3142700195314	-266.1159667968751	746.1329345703126	-615.2185668945314	-243.7579498291016	756.0903930664064	-640.3352661132814	-288.0890502929688	668.0369262695314	-617.7714843750001	-320.5097656250001	508.8106994628907	-658.0719604492189	-297.2524108886719	332.1463317871094	-737.4583740234376	-347.3383178710938	250.9178009033204	-681.6682739257814	-317.3774719238282	249.0914306640626	-718.8010253906251	-337.4393310546876	212.7696838378907	-760.3281860351564	-397.445037841797	129.6831359863282	-716.1739501953126	-387.8982849121095	136.9243316650391	-791.0064697265627	-463.3983154296876	109.2283630371094	-763.6217651367189	-268.7322387695313	55.36807250976564	-793.9892578125002	-263.0113830566407	63.39797973632814	-749.7401733398439	-301.0996093750001	53.50211715698244	-693.8823852539064	
1038	5.185	-283.5206909179688	1722.885375976563	-673.3179931640626	-411.4479370117189	1688.244750976563	-816.231872558594	-413.5992126464845	1678.905517578125	-676.4487304687501	-431.9778442382814	1502.138916015625	-740.5179443359376	-447.8787536621095	1212.19384765625	-736.2869262695314	-294.5724182128907	1464.300170898438	-747.6760253906251	-356.0497741699219	1503.983032226563	-887.2968750000002	-229.5054321289063	1468.579345703125	-949.4107055664065	-201.6293640136719	1469.858642578125	-909.796081542969	-163.8074798583985	1465.019897460938	-956.8137207031252	-94.09890747070314	1427.335693359375	-987.7357177734377	-93.51470947265626	1372.620483398438	-963.6083984375002	147.312973022461	1476.735107421875	-912.2341308593752	154.9590911865235	1429.830322265625	-958.0885009765627	220.3562011718751	1497.884765625	-916.867614746094	-344.0124511718751	1498.88720703125	-615.0208740234376	-227.8977813720704	1410.67919921875	-514.7028198242189	-195.2584075927735	1442.018676757813	-536.8994750976564	-159.4556121826172	1404.825317382813	-512.2903442382814	-83.07007598876955	1394.900268554688	-518.8136596679689	-92.66085052490236	1345.04638671875	-546.6456298828126	156.7823486328125	1455.94970703125	-572.5693969726564	171.2675476074219	1403.450805664063	-540.2376708984376	239.9722137451172	1470.849609375	-560.6624755859376	-296.1652526855469	1015.488037109375	-867.9522705078127	-275.0534667968751	1003.942504882813	-661.3603515625001	-445.7539672851564	1082.693603515625	-742.7673339843751	-453.8904113769532	1051.769287109375	-771.819030761719	-445.8404235839845	1050.1513671875	-714.6821899414064	-309.0111389160157	763.9236450195314	-952.9902954101565	-254.9207916259766	698.5776977539064	-961.2655029296877	-210.0500640869141	712.1069335937501	-947.7963867187502	-265.9761657714844	638.9910888671876	-952.7827148437502	-260.4741210937501	552.3993530273439	-938.1456298828127	-315.8255310058594	424.1815795898439	-905.1713867187502	-390.6282043457032	444.0079345703126	-946.4650878906252	-368.0508422851563	412.3725891113282	-927.3733520507815	-429.0646057128907	367.0966796875001	-885.1723632812502	-577.7676391601564	345.9479675292969	-891.2278442382815	-544.4656372070314	333.9087524414063	-810.6141357421877	-638.5007934570314	369.5681762695313	-829.5004882812502	-527.0861816406251	187.7722625732422	-829.8459472656252	-532.8880004882814	184.0276794433594	-868.9669189453127	-585.9900512695314	203.2463378906251	-910.6003417968752	-307.8728332519532	795.393005371094	-599.1593627929689	-265.9385986328126	745.9799804687501	-615.1051635742189	-243.7688446044922	756.0452880859376	-640.2283935546876	-287.8037719726563	667.9661254882814	-617.6718750000001	-320.0774230957032	508.8441772460939	-658.0626220703126	-297.0324401855469	332.1942138671876	-737.4569702148439	-347.1772155761719	250.8577270507813	-681.5112915039064	-317.2754821777344	249.0323791503907	-718.8168334960939	-337.3684997558594	212.7844543457032	-760.3594970703126	-397.4786071777345	129.7164154052735	-716.1810302734376	-387.8716430664064	136.9623413085938	-790.9503173828127	-463.9399414062501	109.5372467041016	-763.2552490234376	-268.6488952636719	55.39815139770509	-794.0266113281252	-263.0499572753907	63.35895919799806	-749.7615966796876	-301.0577392578126	53.45626068115236	-693.9400024414064	
1039	5.19	-282.7805480957032	1722.715209960938	-673.2503662109376	-410.957733154297	1688.227661132813	-816.3953247070315	-412.8901367187501	1678.487915039063	-676.6973266601564	-431.1499938964845	1502.097534179688	-740.5581054687501	-447.6354370117189	1212.279052734375	-736.0149536132814	-293.8622131347657	1464.093872070313	-747.6680297851564	-355.4475708007813	1503.870971679688	-887.325378417969	-228.6250305175782	1468.36474609375	-949.547546386719	-200.7462005615235	1469.876586914063	-909.7718505859377	-163.109359741211	1464.739013671875	-956.8067626953127	-93.55767822265626	1427.158813476563	-987.7056274414065	-93.21148681640626	1372.50048828125	-963.5711669921877	148.5625762939453	1476.114990234375	-912.0928344726565	155.505859375	1429.423583984375	-958.1770629882815	220.862533569336	1497.142578125	-916.8775024414065	-343.4051208496094	1498.932861328125	-614.9882812500001	-227.4312438964844	1410.937744140625	-514.5480957031251	-194.4301757812501	1442.1357421875	-536.7720336914064	-158.9051361083985	1404.927978515625	-512.1459350585939	-82.5628128051758	1394.907104492188	-518.6640625000001	-92.24477386474611	1345.0615234375	-546.4611206054689	157.4009552001953	1455.71435546875	-572.3224487304689	171.8714904785157	1403.167724609375	-539.9117431640626	240.5287017822266	1470.4873046875	-560.5212402343751	-296.2182922363282	1015.370727539063	-867.6055908203127	-274.9861755371094	1003.749938964844	-661.0523681640626	-445.8575134277345	1082.672241210938	-742.4041137695314	-453.7727050781251	1051.72216796875	-771.513122558594	-445.681365966797	1050.220703125	-714.2766113281251	-309.3416137695313	763.7260131835939	-952.443786621094	-255.5088195800782	698.2809448242189	-960.6699829101565	-210.4933776855469	711.7426757812501	-947.0728759765627	-266.6616210937501	638.7269897460939	-952.226257324219	-261.3646850585938	552.1849365234376	-937.588562011719	-317.1828308105469	424.340057373047	-904.4299316406252	-391.8268127441407	444.2601318359376	-945.7972412109377	-369.5684814453126	412.650848388672	-926.6420898437502	-430.4807739257814	367.3562316894532	-884.760437011719	-579.2789306640626	346.7932128906251	-890.2525024414065	-545.9749145507814	334.7803039550782	-809.8174438476565	-639.6335449218751	371.2785034179688	-828.6416015625002	-529.8496093750001	188.3123626708985	-828.5307617187502	-535.8560180664064	184.6454162597657	-867.597839355469	-588.6931762695314	203.9895019531251	-909.1185302734377	-307.7418518066407	795.1492309570315	-598.8760375976564	-265.8740234375001	745.7040405273439	-615.1016845703126	-243.7032928466797	756.0276489257814	-640.1323852539064	-287.6193237304688	667.9224853515626	-617.5195922851564	-319.6163330078126	508.7027587890626	-657.8934936523439	-296.8579101562501	332.1102905273438	-737.4224853515626	-347.0055236816407	250.8814697265626	-681.5228271484376	-317.1275329589844	248.9822692871094	-718.7440795898439	-337.3277282714844	212.8043670654297	-760.3320312500001	-397.4636840820314	129.7733764648438	-716.1740112304689	-387.7906799316407	136.9225158691407	-790.9453125000002	-465.8921508789064	109.7758483886719	-762.4276733398439	-268.6764526367188	55.36250686645509	-794.043151855469	-262.9854736328126	63.39338684082033	-749.7358398437501	-301.0097045898438	53.49449920654298	-693.9488525390626	
1040	5.195	-282.1119689941407	1722.786865234375	-673.5003662109376	-409.8974609375001	1688.024169921875	-816.4675903320315	-412.2265930175782	1678.842895507813	-676.7102050781251	-430.571502685547	1502.1533203125	-740.5375976562501	-447.3646240234376	1212.39453125	-735.7498779296876	-293.1595153808594	1464.075927734375	-747.6112670898439	-354.8465576171876	1503.708251953125	-887.2585449218752	-227.9661254882813	1468.1796875	-949.5784301757815	-200.1190490722657	1469.696655273438	-909.7325439453127	-162.5555572509766	1464.49169921875	-956.7728271484377	-93.06357574462892	1426.887817382813	-987.6635742187502	-93.19641113281251	1372.52880859375	-963.5786132812502	149.339096069336	1475.634887695313	-912.0913696289065	156.165512084961	1428.8466796875	-958.390808105469	221.7232666015626	1496.677978515625	-917.1253662109377	-342.1640319824219	1498.602661132813	-614.3044433593751	-226.9412384033204	1411.079345703125	-514.4264526367189	-193.8491210937501	1442.489990234375	-536.6998291015626	-158.3733978271485	1405.019775390625	-512.0348510742189	-82.0495071411133	1394.8701171875	-518.3381347656251	-91.76970672607423	1345.012573242188	-546.5228271484376	157.9516296386719	1455.192260742188	-572.1528930664064	172.4854888916016	1402.925659179688	-539.5117797851564	241.1947784423829	1470.04931640625	-560.2716064453126	-296.2461853027344	1015.24658203125	-867.1696777343752	-275.0457763671876	1003.608337402344	-660.7131347656251	-445.6014709472657	1082.870239257813	-742.0688476562501	-453.7408142089845	1051.825439453125	-771.1668090820315	-445.7366027832032	1050.216674804688	-713.9416503906251	-309.6849670410157	763.5661621093751	-951.9816894531252	-256.0411376953126	698.0637207031251	-960.0942382812502	-210.9770507812501	711.4115600585939	-946.4690551757815	-267.2695922851563	638.5111083984376	-951.6333007812502	-262.3099670410157	551.9236450195314	-937.116638183594	-318.5825195312501	424.363739013672	-903.6516723632815	-393.2322998046876	444.5844116210939	-945.0395507812502	-371.1225280761719	413.0074462890626	-925.9263305664065	-432.2177124023439	367.9905700683594	-883.648132324219	-580.8679199218751	347.8412475585938	-889.3862304687502	-547.4185180664064	335.5948791503907	-808.961364746094	-640.9345703125001	372.9991455078126	-827.902038574219	-533.0708007812501	189.0017547607422	-826.9968261718752	-538.8748168945314	185.0554962158203	-866.1374511718752	-591.6870727539064	204.8246459960938	-907.800964355469	-307.5720520019532	795.0802001953127	-598.6546630859376	-265.9916076660157	745.2525634765626	-615.4863281250001	-243.6553192138672	755.9509887695314	-640.0430297851564	-287.2669677734376	667.7877807617189	-617.3004150390626	-319.2865905761719	508.6795349121095	-657.7548217773439	-296.7161865234376	332.1068420410157	-737.3402099609376	-346.7726440429688	250.8965301513672	-681.5526123046876	-317.1538391113282	249.0773925781251	-718.7711791992189	-337.1932067871094	212.8098754882813	-760.3182983398439	-397.4255676269532	129.7720336914063	-716.1463623046876	-387.7874450683595	136.9739227294922	-790.932312011719	-467.3449096679689	107.8380737304688	-761.4010620117189	-268.6612243652344	55.38428878784181	-794.030700683594	-263.0235595703126	63.34299468994142	-749.7603149414064	-301.0082397460938	53.45201110839845	-693.9080200195314	
